<?xml version="1.0" encoding="utf-8"?>
<!-- Generator: Adobe Illustrator 17.0.0, SVG Export Plug-In . SVG Version: 6.00 Build 0)  -->
<!DOCTYPE svg PUBLIC "-//W3C//DTD SVG 1.1//EN" "http://www.w3.org/Graphics/SVG/1.1/DTD/svg11.dtd">
<svg version="1.1" id="Слой_1" xmlns="http://www.w3.org/2000/svg" xmlns:xlink="http://www.w3.org/1999/xlink" x="0px" y="0px"
	 width="372px" height="371.333px" viewBox="0 0 372 371.333" enable-background="new 0 0 372 371.333" xml:space="preserve">
<path fill="#251B37" d="M371.333,356.993c0,7.828-6.346,14.173-14.173,14.173H14.507c-7.828,0-14.173-6.346-14.173-14.173V14.34
	c0-7.828,6.346-14.173,14.173-14.173H357.16c7.828,0,14.173,6.346,14.173,14.173V356.993z"/>
<g>
	<g>
		<path fill="#FCA3A3" d="M116.354,223.127v-39.484H113.7c-2.744,0-5.199,0.753-7.366,2.256c-1.593,1.151-3.407,3.65-5.441,7.499
			l-16.069,29.729H50.857l14.558-28.189c0.707-1.417,2.11-3.432,4.211-6.044c2.1-2.613,3.703-4.317,4.808-5.115
			c1.636-1.194,4.244-2.39,7.825-3.586c-4.471-1.017-7.99-2.3-10.558-3.849c-4.028-2.433-7.193-5.607-9.495-9.522
			c-2.302-3.916-3.453-8.571-3.453-13.969c0-6.193,1.504-11.447,4.513-15.76c3.008-4.313,6.968-7.267,11.878-8.859
			c4.911-1.593,12.011-2.389,21.302-2.389h50.102v97.284H116.354z M116.354,145.486h-13.206c-5.486,0-9.224,0.841-11.215,2.521
			c-1.991,1.682-2.986,4.093-2.986,7.233c0,2.124,0.63,4.004,1.891,5.641c1.261,1.637,2.887,2.654,4.877,3.053
			c3.937,0.885,6.591,1.327,7.963,1.327h12.675V145.486z"/>
		<path fill="#FCA3A3" d="M171.699,201.493c2.389,0,4.423,0.841,6.105,2.522c1.681,1.682,2.521,3.716,2.521,6.104
			c0,2.346-0.841,4.358-2.521,6.039c-1.682,1.682-3.716,2.521-6.105,2.521c-2.346,0-4.358-0.84-6.039-2.521
			c-1.682-1.681-2.521-3.693-2.521-6.039c0-2.389,0.84-4.423,2.521-6.104C167.341,202.334,169.353,201.493,171.699,201.493z
			 M182.582,204.28c2.433,2.257,3.65,5.088,3.65,8.494c0,3.01-1.118,5.641-3.351,7.897c-2.234,2.256-4.834,3.384-7.797,3.384
			c-3.583,0-6.481-1.327-8.693-3.981l0.464-0.465c2.831,1.683,5.397,2.522,7.698,2.522c2.787,0,5.165-0.963,7.133-2.887
			c1.968-1.925,2.953-4.214,2.953-6.868c0-2.522-0.885-5.065-2.654-7.632L182.582,204.28z"/>
		<path fill="#FCA3A3" d="M202.423,125.843h39.534l15.246,59.193l15.138-59.193h39.511v97.284h-24.62v-74.19l-18.97,74.19h-22.284
			l-18.935-74.19v74.19h-24.62V125.843z"/>
	</g>
</g>
</svg>
